<svg version="1.1" id="Layer_1" xmlns="http://www.w3.org/2000/svg" xmlns:xlink="http://www.w3.org/1999/xlink" x="0px" y="0px"
	 width="100%" viewBox="0 0 100 100" enable-background="new 0 0 100 100" xml:space="preserve">
<path fill="#258fff" opacity="1.000000" stroke="none"
	d="
M61.908295,62.003838
	C66.666382,74.258492 63.079834,72.018295 54.673042,72.005257
	C42.193333,71.985909 29.713327,72.037575 17.234104,71.957138
	C15.504584,71.945984 13.729425,71.511971 12.062486,70.993629
	C9.325761,70.142647 7.530323,68.237846 8.080235,65.262436
	C8.662157,62.113800 10.893801,59.348988 14.085528,60.139492
	C26.760288,63.278675 31.410385,54.849224 36.055965,45.876812
	C38.416054,41.318577 41.330666,37.049561 43.769268,32.528267
	C44.327003,31.494192 44.383739,29.778202 43.925053,28.690701
	C42.871147,26.191971 41.388634,23.869219 40.023537,21.507727
	C38.237762,18.418509 38.173840,15.484735 41.306496,13.351216
	C44.546951,11.144279 47.298199,11.773028 49.177017,15.466495
	C49.749538,16.591984 50.727448,17.511255 51.477383,18.470829
	C52.514000,16.984924 53.446098,15.123827 54.853882,13.750266
	C57.136818,11.522828 60.210545,11.205407 62.028557,13.814439
	C63.214096,15.515805 63.782177,18.893757 62.881733,20.599342
	C57.191017,31.378439 51.001976,41.894054 45.003239,52.511227
	C43.677551,54.857567 42.455494,57.262463 41.537807,58.981026
	C48.155212,60.046101 54.674232,61.095337 61.585815,62.087147
	C61.978378,62.029720 61.908295,62.003838 61.908295,62.003838
z"/>
<path fill="#258fff" opacity="1.000000" stroke="none"
	d="
M61.990860,62.064930
	C60.889748,59.456322 60.017086,56.676918 58.619289,54.193031
	C53.570091,45.220558 53.536793,39.161140 59.543728,33.056141
	C64.077515,40.837399 68.720886,48.424450 72.935776,56.242500
	C74.466011,59.080868 76.046097,60.438969 79.339195,60.065140
	C82.132111,59.748085 84.990089,60.033455 87.818375,59.991421
	C91.524437,59.936344 94.431374,61.830170 94.795845,65.208855
	C95.207764,69.027298 92.162766,71.235970 88.546204,71.924850
	C86.620674,72.291626 84.567802,71.989883 82.053329,71.989883
	C83.752335,75.012726 85.213570,77.790512 86.844002,80.465157
	C88.603233,83.351089 88.353897,86.230949 85.631233,87.853645
	C82.834641,89.520386 79.706413,90.034164 77.492920,86.068863
	C73.177139,78.337494 68.533302,70.788956 63.998470,63.180706
	C63.605732,62.521793 63.013798,61.981613 62.211342,61.695061
	C61.908295,62.003838 61.978378,62.029720 61.990860,62.064930
z"/>
<path fill="#258fff" opacity="1.000000" stroke="none"
	d="
M17.042543,87.974228
	C12.453917,82.225845 17.442924,78.298882 19.777937,74.136765
	C20.367191,73.086433 23.927677,73.255951 25.991863,73.615829
	C27.773752,73.926491 29.369606,75.304222 31.652576,76.536789
	C29.214312,80.144730 26.950533,83.419395 24.767353,86.746933
	C22.748821,89.823517 20.166220,89.184341 17.042543,87.974228
z"/>
</svg>
