<?xml version="1.0" encoding="UTF-8"?>
<!--Generator: Apple Native CoreSVG 232.5-->
<!DOCTYPE svg
PUBLIC "-//W3C//DTD SVG 1.1//EN"
       "http://www.w3.org/Graphics/SVG/1.1/DTD/svg11.dtd">
<svg version="1.1" xmlns="http://www.w3.org/2000/svg" xmlns:xlink="http://www.w3.org/1999/xlink" viewBox="0 0 15.0195 18.7988">
 <g>
  <rect height="18.7988" opacity="0" width="15.0195" x="0" y="0"/>
  <path d="M7.50977 0C7.28516 0 7.08008 0.0878906 6.8457 0.283203L0.263672 5.63477C0.0976562 5.77148 0 5.97656 0 6.26953C0 6.77734 0.380859 7.16797 0.888672 7.16797C1.10352 7.16797 1.30859 7.08984 1.54297 6.9043L7.50977 2.05078L13.4766 6.9043C13.7012 7.08984 13.916 7.16797 14.1211 7.16797C14.6387 7.16797 15.0195 6.77734 15.0195 6.26953C15.0195 5.97656 14.9219 5.77148 14.7559 5.63477L8.17383 0.283203C7.93945 0.0878906 7.72461 0 7.50977 0ZM7.50977 18.7891C7.72461 18.7891 7.93945 18.7012 8.17383 18.5059L14.7559 13.1543C14.9219 13.0176 15.0195 12.8125 15.0195 12.5098C15.0195 12.002 14.6387 11.6211 14.1211 11.6211C13.916 11.6211 13.7012 11.6992 13.4766 11.8848L7.50977 16.7383L1.54297 11.8848C1.30859 11.6992 1.10352 11.6211 0.888672 11.6211C0.380859 11.6211 0 12.002 0 12.5098C0 12.8125 0.0976562 13.0176 0.263672 13.1543L6.8457 18.5059C7.08008 18.6914 7.28516 18.7891 7.50977 18.7891Z" fill="#ffffff" fill-opacity="0.85"/>
 </g>
</svg>
