<?xml version="1.0" encoding="UTF-8"?>
<!--Generator: Apple Native CoreSVG 232.5-->
<!DOCTYPE svg
PUBLIC "-//W3C//DTD SVG 1.1//EN"
       "http://www.w3.org/Graphics/SVG/1.1/DTD/svg11.dtd">
<svg version="1.1" xmlns="http://www.w3.org/2000/svg" xmlns:xlink="http://www.w3.org/1999/xlink" viewBox="0 0 23.0273 17.9785">
 <g>
  <rect height="17.9785" opacity="0" width="23.0273" x="0" y="0"/>
  <path d="M1.04492 3.29102L1.04492 4.66797L21.9824 4.66797L21.9824 3.29102ZM3.06641 17.9785L19.9609 17.9785C22.0117 17.9785 23.0273 16.9727 23.0273 14.9609L23.0273 3.02734C23.0273 1.01562 22.0117 0 19.9609 0L3.06641 0C1.02539 0 0 1.01562 0 3.02734L0 14.9609C0 16.9727 1.02539 17.9785 3.06641 17.9785ZM3.08594 16.4062C2.10938 16.4062 1.57227 15.8887 1.57227 14.873L1.57227 3.11523C1.57227 2.09961 2.10938 1.57227 3.08594 1.57227L19.9414 1.57227C20.9082 1.57227 21.4551 2.09961 21.4551 3.11523L21.4551 14.873C21.4551 15.8887 20.9082 16.4062 19.9414 16.4062Z" fill="#258fff" fill-opacity="0.85"/>
  <path d="M4.19922 14.0137C4.19922 14.5215 4.55078 14.8633 5.06836 14.8633L17.9883 14.8633C18.5059 14.8633 18.8574 14.5215 18.8574 14.0137L18.8574 12.5488C18.8574 12.041 18.5059 11.6992 17.9883 11.6992L5.06836 11.6992C4.55078 11.6992 4.19922 12.041 4.19922 12.5488Z" fill="#258fff" fill-opacity="0.85"/>
 </g>
</svg>
