<?xml version="1.0" encoding="UTF-8"?>
<!--Generator: Apple Native CoreSVG 232.5-->
<!DOCTYPE svg
PUBLIC "-//W3C//DTD SVG 1.1//EN"
       "http://www.w3.org/Graphics/SVG/1.1/DTD/svg11.dtd">
<svg version="1.1" xmlns="http://www.w3.org/2000/svg" xmlns:xlink="http://www.w3.org/1999/xlink" viewBox="0 0 16.4258 20.9473">
 <g>
  <rect height="20.9473" opacity="0" width="16.4258" x="0" y="0"/>
  <path d="M3.02734 20.9375L13.3984 20.9375C15.4199 20.9375 16.4258 19.9121 16.4258 17.8809L16.4258 9.01367C16.4258 7.75391 16.2793 7.20703 15.498 6.40625L10.1172 0.927734C9.375 0.166016 8.75977 0 7.66602 0L3.02734 0C1.01562 0 0 1.03516 0 3.06641L0 17.8809C0 19.9219 1.00586 20.9375 3.02734 20.9375ZM3.0957 19.3652C2.08984 19.3652 1.57227 18.8281 1.57227 17.8516L1.57227 3.0957C1.57227 2.12891 2.08984 1.57227 3.10547 1.57227L7.45117 1.57227L7.45117 7.24609C7.45117 8.47656 8.06641 9.08203 9.28711 9.08203L14.8535 9.08203L14.8535 17.8516C14.8535 18.8281 14.3359 19.3652 13.3203 19.3652ZM9.46289 7.60742C9.07227 7.60742 8.92578 7.45117 8.92578 7.06055L8.92578 1.875L14.5508 7.60742Z" fill="#258fff" fill-opacity="0.85"/>
 </g>
</svg>
