<?xml version="1.0" encoding="UTF-8"?>
<!--Generator: Apple Native CoreSVG 232.5-->
<!DOCTYPE svg
PUBLIC "-//W3C//DTD SVG 1.1//EN"
       "http://www.w3.org/Graphics/SVG/1.1/DTD/svg11.dtd">
<svg version="1.1" xmlns="http://www.w3.org/2000/svg" xmlns:xlink="http://www.w3.org/1999/xlink" viewBox="0 0 17.9785 17.998">
 <g>
  <rect height="17.998" opacity="0" width="17.9785" x="0" y="0"/>
  <path d="M11.6699 17.998L16.1133 17.998C17.3535 17.998 17.9785 17.3828 17.9785 16.0938L17.9785 11.7188C17.9785 10.4395 17.3535 9.81445 16.1133 9.81445L11.6699 9.81445C10.4199 9.81445 9.79492 10.4395 9.79492 11.7188L9.79492 16.0938C9.79492 17.3828 10.4199 17.998 11.6699 17.998ZM11.6895 16.6211C11.3379 16.6211 11.1719 16.4453 11.1719 16.0938L11.1719 11.7285C11.1719 11.3672 11.3379 11.1914 11.6895 11.1914L16.0938 11.1914C16.4355 11.1914 16.6016 11.3672 16.6016 11.7285L16.6016 16.0938C16.6016 16.4453 16.4355 16.6211 16.0938 16.6211Z" fill="#ffffff" fill-opacity="0.85"/>
  <path d="M1.86523 17.998L6.31836 17.998C7.55859 17.998 8.18359 17.3828 8.18359 16.0938L8.18359 11.7188C8.18359 10.4395 7.55859 9.81445 6.31836 9.81445L1.86523 9.81445C0.625 9.81445 0 10.4395 0 11.7188L0 16.0938C0 17.3828 0.625 17.998 1.86523 17.998ZM1.88477 16.6211C1.54297 16.6211 1.37695 16.4453 1.37695 16.0938L1.37695 11.7285C1.37695 11.3672 1.54297 11.1914 1.88477 11.1914L6.28906 11.1914C6.63086 11.1914 6.80664 11.3672 6.80664 11.7285L6.80664 16.0938C6.80664 16.4453 6.63086 16.6211 6.28906 16.6211Z" fill="#ffffff" fill-opacity="0.85"/>
  <path d="M11.6699 8.20312L16.1133 8.20312C17.3535 8.20312 17.9785 7.57812 17.9785 6.28906L17.9785 1.92383C17.9785 0.634766 17.3535 0.0195312 16.1133 0.0195312L11.6699 0.0195312C10.4199 0.0195312 9.79492 0.634766 9.79492 1.92383L9.79492 6.28906C9.79492 7.57812 10.4199 8.20312 11.6699 8.20312ZM11.6895 6.82617C11.3379 6.82617 11.1719 6.65039 11.1719 6.28906L11.1719 1.92383C11.1719 1.57227 11.3379 1.39648 11.6895 1.39648L16.0938 1.39648C16.4355 1.39648 16.6016 1.57227 16.6016 1.92383L16.6016 6.28906C16.6016 6.65039 16.4355 6.82617 16.0938 6.82617Z" fill="#ffffff" fill-opacity="0.85"/>
  <path d="M1.86523 8.20312L6.31836 8.20312C7.55859 8.20312 8.18359 7.57812 8.18359 6.28906L8.18359 1.92383C8.18359 0.634766 7.55859 0.0195312 6.31836 0.0195312L1.86523 0.0195312C0.625 0.0195312 0 0.634766 0 1.92383L0 6.28906C0 7.57812 0.625 8.20312 1.86523 8.20312ZM1.88477 6.82617C1.54297 6.82617 1.37695 6.65039 1.37695 6.28906L1.37695 1.92383C1.37695 1.57227 1.54297 1.39648 1.88477 1.39648L6.28906 1.39648C6.63086 1.39648 6.80664 1.57227 6.80664 1.92383L6.80664 6.28906C6.80664 6.65039 6.63086 6.82617 6.28906 6.82617Z" fill="#ffffff" fill-opacity="0.85"/>
 </g>
</svg>
