<?xml version="1.0" encoding="UTF-8"?>
<!--Generator: Apple Native CoreSVG 232.5-->
<!DOCTYPE svg
PUBLIC "-//W3C//DTD SVG 1.1//EN"
       "http://www.w3.org/Graphics/SVG/1.1/DTD/svg11.dtd">
<svg version="1.1" xmlns="http://www.w3.org/2000/svg" xmlns:xlink="http://www.w3.org/1999/xlink" viewBox="0 0 27.5879 21.2793">
 <g>
  <rect height="21.2793" opacity="0" width="27.5879" x="0" y="0"/>
  <path d="M3.06641 19.5117L19.4043 19.5117C21.1523 19.5117 22.1777 18.4961 22.1777 16.4844L22.1777 6.45508C22.1777 4.44336 21.1426 3.42773 19.1113 3.42773L9.73633 3.42773C9.07227 3.42773 8.67188 3.27148 8.18359 2.85156L7.58789 2.36328C6.94336 1.81641 6.44531 1.64062 5.47852 1.64062L2.69531 1.64062C0.986328 1.64062 0 2.61719 0 4.58008L0 16.4844C0 18.5059 1.02539 19.5117 3.06641 19.5117ZM3.08594 17.9395C2.10938 17.9395 1.57227 17.4219 1.57227 16.4062L1.57227 4.66797C1.57227 3.70117 2.08008 3.20312 3.01758 3.20312L5.07812 3.20312C5.72266 3.20312 6.11328 3.36914 6.61133 3.78906L7.20703 4.28711C7.8418 4.81445 8.35938 5 9.32617 5L19.082 5C20.0488 5 20.6055 5.52734 20.6055 6.54297L20.6055 16.416C20.6055 17.4219 20.0488 17.9395 19.082 17.9395ZM0.957031 8.57422L21.2109 8.57422L21.2109 7.09961L0.957031 7.09961Z" fill="#258fff" fill-opacity="0.85"/>
  <path d="M21.2988 12.5879C24.7266 12.5879 27.5879 9.72656 27.5879 6.28906C27.5879 2.8418 24.7461 0 21.2988 0C17.8418 0 15 2.8418 15 6.28906C15 9.75586 17.832 12.5879 21.2988 12.5879Z" fill="#258fff"/>
  <path d="M21.2988 11.25C23.9844 11.25 26.2598 9.00391 26.2598 6.28906C26.2598 3.57422 24.0137 1.32812 21.2988 1.32812C18.5742 1.32812 16.3379 3.57422 16.3379 6.28906C16.3379 9.02344 18.5742 11.25 21.2988 11.25Z" fill="#258fff" fill-opacity="0.85"/>
  <path d="M21.2988 10.1074C19.873 10.1074 18.75 9.375 18.4277 8.70117L18.4277 8.65234C18.75 8.04688 19.7461 7.37305 21.2988 7.37305C22.8516 7.37305 23.8477 8.04688 24.1602 8.66211L24.1602 8.70117C23.8379 9.38477 22.7246 10.1074 21.2988 10.1074ZM21.2891 6.58203C20.3906 6.58203 19.707 5.83984 19.707 4.82422C19.707 3.91602 20.4004 3.14453 21.2891 3.14453C22.1875 3.14453 22.8906 3.91602 22.8906 4.82422C22.8906 5.83984 22.1875 6.58203 21.2891 6.58203Z" fill="#59443c" />
 </g>
</svg>
